<svg width="263" height="54" viewBox="0 0 263 54" fill="none" xmlns="http://www.w3.org/2000/svg">
<circle cx="27" cy="27" r="27" fill="url(#paint0_linear_2_37)"/>
<circle cx="27" cy="27" r="13" fill="url(#paint1_radial_2_37)"/>
<path d="M68.44 42V13.2H79.08C81.1333 13.2 82.88 13.5333 84.32 14.2C85.76 14.8667 86.8533 15.8 87.6 17C88.3733 18.1733 88.76 19.5733 88.76 21.2C88.76 22.8267 88.3733 24.2533 87.6 25.48C86.8533 26.68 85.76 27.6267 84.32 28.32C82.88 28.9867 81.1333 29.32 79.08 29.32H70.84V26.44H78.96C81.0933 26.44 82.7067 25.9733 83.8 25.04C84.92 24.1067 85.48 22.8267 85.48 21.2C85.48 19.6 84.9333 18.3467 83.84 17.44C82.7467 16.5333 81.12 16.08 78.96 16.08H71.72V42H68.44ZM85.32 42L70 27.72H74.48L90.28 42H85.32ZM100.519 42.4C98.5191 42.4 96.7591 41.9333 95.2391 41C93.7191 40.0667 92.5324 38.8 91.6791 37.2C90.8524 35.5733 90.4391 33.7467 90.4391 31.72C90.4391 29.6667 90.8657 27.8533 91.7191 26.28C92.5724 24.7067 93.7457 23.4667 95.2391 22.56C96.7591 21.6533 98.5191 21.2 100.519 21.2C102.546 21.2 104.306 21.6533 105.799 22.56C107.319 23.4667 108.492 24.7067 109.319 26.28C110.172 27.8533 110.599 29.6667 110.599 31.72C110.599 33.7467 110.172 35.5733 109.319 37.2C108.492 38.8 107.319 40.0667 105.799 41C104.306 41.9333 102.546 42.4 100.519 42.4ZM100.519 39.68C101.906 39.68 103.106 39.3467 104.119 38.68C105.132 37.9867 105.919 37.04 106.479 35.84C107.039 34.64 107.319 33.2533 107.319 31.68C107.319 29.3333 106.692 27.4533 105.439 26.04C104.212 24.6267 102.572 23.92 100.519 23.92C98.4924 23.92 96.8524 24.6267 95.5991 26.04C94.3457 27.4533 93.7191 29.3333 93.7191 31.68C93.7191 33.2533 93.9991 34.64 94.5591 35.84C95.1191 37.04 95.9057 37.9867 96.9191 38.68C97.9591 39.3467 99.1591 39.68 100.519 39.68ZM120.838 42.4C119.505 42.4 118.318 42.1333 117.278 41.6C116.238 41.04 115.425 40.2667 114.838 39.28C114.252 38.2667 113.958 37.1067 113.958 35.8V21.6H117.158V34.96C117.158 36.5067 117.532 37.6667 118.278 38.44C119.052 39.2133 120.145 39.6 121.558 39.6C122.838 39.6 123.972 39.3067 124.958 38.72C125.945 38.1333 126.718 37.32 127.278 36.28C127.865 35.2133 128.158 34 128.158 32.64L128.678 37.48C128.012 39 126.972 40.2 125.558 41.08C124.145 41.96 122.572 42.4 120.838 42.4ZM128.358 42V37.2H128.158V21.6H131.358V42H128.358ZM136.553 42V21.6H139.553V26.4H139.753V42H136.553ZM151.153 42V28.64C151.153 27.0933 150.766 25.9333 149.993 25.16C149.22 24.3867 148.073 24 146.553 24C145.22 24 144.033 24.2933 142.993 24.88C141.98 25.4667 141.18 26.28 140.593 27.32C140.033 28.36 139.753 29.5733 139.753 30.96L139.233 26.12C139.926 24.6 140.98 23.4 142.393 22.52C143.833 21.64 145.46 21.2 147.273 21.2C149.406 21.2 151.113 21.8133 152.393 23.04C153.7 24.24 154.353 25.8267 154.353 27.8V42H151.153ZM174.138 42V37.24L174.538 37.36C174.032 38.9067 173.098 40.1333 171.738 41.04C170.405 41.9467 168.805 42.4 166.938 42.4C165.098 42.4 163.485 41.96 162.098 41.08C160.738 40.2 159.672 38.9733 158.898 37.4C158.152 35.8267 157.778 33.9867 157.778 31.88C157.778 29.7467 158.165 27.88 158.938 26.28C159.712 24.68 160.792 23.44 162.178 22.56C163.565 21.68 165.192 21.24 167.058 21.24C168.978 21.24 170.592 21.7067 171.898 22.64C173.205 23.5733 174.098 24.8933 174.578 26.6L173.938 26.68V13.2H177.138V42H174.138ZM167.538 39.6C169.592 39.6 171.192 38.9067 172.338 37.52C173.512 36.1067 174.098 34.1867 174.098 31.76C174.098 29.3867 173.512 27.5067 172.338 26.12C171.165 24.7333 169.565 24.04 167.538 24.04C165.512 24.04 163.925 24.7333 162.778 26.12C161.632 27.5067 161.058 29.4267 161.058 31.88C161.058 34.28 161.632 36.1733 162.778 37.56C163.925 38.92 165.512 39.6 167.538 39.6ZM182.596 42V13.2H185.876V42H182.596ZM184.276 29.64V26.76H199.796V29.64H184.276ZM184.276 16.08V13.2H200.916V16.08H184.276ZM205.219 42V13.2H208.419V42H205.219ZM222.108 42.4C220.108 42.4 218.348 41.9333 216.828 41C215.308 40.0667 214.121 38.8 213.268 37.2C212.441 35.5733 212.028 33.7467 212.028 31.72C212.028 29.6667 212.455 27.8533 213.308 26.28C214.161 24.7067 215.335 23.4667 216.828 22.56C218.348 21.6533 220.108 21.2 222.108 21.2C224.135 21.2 225.895 21.6533 227.388 22.56C228.908 23.4667 230.081 24.7067 230.908 26.28C231.761 27.8533 232.188 29.6667 232.188 31.72C232.188 33.7467 231.761 35.5733 230.908 37.2C230.081 38.8 228.908 40.0667 227.388 41C225.895 41.9333 224.135 42.4 222.108 42.4ZM222.108 39.68C223.495 39.68 224.695 39.3467 225.708 38.68C226.721 37.9867 227.508 37.04 228.068 35.84C228.628 34.64 228.908 33.2533 228.908 31.68C228.908 29.3333 228.281 27.4533 227.028 26.04C225.801 24.6267 224.161 23.92 222.108 23.92C220.081 23.92 218.441 24.6267 217.188 26.04C215.935 27.4533 215.308 29.3333 215.308 31.68C215.308 33.2533 215.588 34.64 216.148 35.84C216.708 37.04 217.495 37.9867 218.508 38.68C219.548 39.3467 220.748 39.68 222.108 39.68ZM239.557 42L233.317 21.6H236.557L241.357 39.08H240.557L246.317 21.6H248.917L254.717 39.08H253.917L258.677 21.6H261.757L255.517 42H252.917L247.157 24.92H247.997L242.157 42H239.557Z" fill="#585C8F"/>
<defs>
<linearGradient id="paint0_linear_2_37" x1="-6.81092e-07" y1="52.1008" x2="59.8891" y2="10.3459" gradientUnits="userSpaceOnUse">
<stop stop-color="#DB84A3"/>
<stop offset="0.5" stop-color="#CC9DBD"/>
<stop offset="1" stop-color="#BCB5D7"/>
</linearGradient>
<radialGradient id="paint1_radial_2_37" cx="0" cy="0" r="1" gradientUnits="userSpaceOnUse" gradientTransform="translate(27 27) rotate(90) scale(13)">
<stop offset="0.055" stop-color="#BCB5D7" stop-opacity="0"/>
<stop offset="1" stop-color="#FEFEFE" stop-opacity="0.75"/>
</radialGradient>
</defs>
</svg>
